# This file uses centimeters as units for non-parametric coordinates.

mtllib colider with no wall.mtl
g default
v -79.649572 21.823908 4.507013
v -105.720193 21.823908 -6.291794
v -142.589614 21.823908 30.577627
v -131.790799 21.823908 56.648240
v -105.720193 21.823908 67.447047
v -79.649572 21.823908 56.648244
v -68.850773 21.823908 30.577627
v -79.649572 24.811810 4.507013
v -105.720193 24.811810 -6.291794
v -142.589614 24.811810 30.577627
v -131.790799 24.811810 56.648240
v -105.720193 24.811810 67.447047
v -79.649572 24.811810 56.648244
v -68.850773 24.811810 30.577627
v -80.584102 24.758255 5.441533
v -105.720193 24.758255 -4.970172
v -141.267996 24.758255 30.577627
v -130.856277 24.758255 55.713718
v -105.720193 24.758255 66.125429
v -80.584102 24.758255 55.713718
v -70.172391 24.758255 30.577627
v -79.649572 31.659279 4.507013
v -105.720193 31.659279 -6.291794
v -105.720193 31.605734 -4.970172
v -80.584102 31.605734 5.441533
v -142.589614 31.659279 30.577627
v -141.267996 31.605734 30.577627
v -131.790799 31.659279 56.648240
v -130.856277 31.605734 55.713718
v -105.720193 31.659279 67.447047
v -105.720193 31.605734 66.125429
v -79.649572 31.659279 56.648244
v -80.584102 31.605734 55.713718
v -68.850773 31.659279 30.577627
v -70.172391 31.605734 30.577627
v -80.584102 22.194880 5.441533
v -105.720193 22.194880 -4.970172
v -141.267996 22.194880 30.577627
v -130.856277 22.194880 55.713718
v -105.720193 22.194880 66.125429
v -80.584102 22.194880 55.713718
v -70.172391 22.194880 30.577627
vt 0.500000 0.312500
vt 0.406250 0.312500
vt 0.406250 0.688440
vt 0.375000 0.688440
vt 0.468750 0.312500
vt 0.468750 0.688440
vt 0.500000 0.312500
vt 0.500000 0.688440
vt 0.531250 0.312500
vt 0.531250 0.688440
vt 0.562500 0.312500
vt 0.562500 0.688440
vt 0.593750 0.312500
vt 0.593750 0.688440
vt 0.625000 0.688440
vt 0.610485 0.954235
vt 0.500000 1.000000
vt 0.500000 1.000000
vt 0.610485 0.954235
vt 0.343750 0.843750
vt 0.343750 0.843750
vt 0.389515 0.733265
vt 0.389515 0.733265
vt 0.500000 0.687500
vt 0.500000 0.687500
vt 0.610485 0.733265
vt 0.610485 0.733265
vt 0.656250 0.843750
vt 0.656250 0.843750
vt 0.610485 0.954235
vt 0.500000 1.000000
vt 0.500000 1.000000
vt 0.610485 0.954235
vt 0.343750 0.843750
vt 0.343750 0.843750
vt 0.389515 0.733265
vt 0.389515 0.733265
vt 0.500000 0.687500
vt 0.500000 0.687500
vt 0.610485 0.733265
vt 0.610485 0.733265
vt 0.656250 0.843750
vt 0.656250 0.843750
vt 0.000000 0.000000
vt 1.000000 0.000000
vt 0.500000 1.000000
vt 0.500000 1.000000
vt 0.500000 1.000000
vt 0.000000 0.000000
vt 1.000000 0.000000
vt 0.500000 1.000000
vt 0.000000 0.000000
vt 1.000000 0.000000
vt 0.500000 1.000000
vt 0.000000 0.000000
vt 1.000000 0.000000
vt 0.500000 1.000000
vt 0.000000 0.000000
vt 1.000000 0.000000
vt 0.500000 1.000000
vt 0.000000 0.000000
vt 1.000000 0.000000
vn 0.382683 0.000000 -0.923880
vn 0.382683 0.000000 -0.923880
vn 0.382683 0.000000 -0.923880
vn 0.382683 0.000000 -0.923880
vn -0.923879 0.000000 0.382684
vn -0.923879 0.000000 0.382684
vn -0.923879 0.000000 0.382684
vn -0.923879 0.000000 0.382684
vn -0.382684 0.000000 0.923879
vn -0.382684 0.000000 0.923879
vn -0.382684 0.000000 0.923879
vn -0.382684 0.000000 0.923879
vn 0.382683 0.000000 0.923880
vn 0.382683 0.000000 0.923880
vn 0.382683 0.000000 0.923880
vn 0.382683 0.000000 0.923880
vn 0.923880 0.000000 0.382683
vn 0.923880 0.000000 0.382683
vn 0.923880 0.000000 0.382683
vn 0.923880 0.000000 0.382683
vn 0.923880 0.000000 -0.382683
vn 0.923880 0.000000 -0.382683
vn 0.923880 0.000000 -0.382683
vn 0.923880 0.000000 -0.382683
vn -0.016766 0.999040 0.040476
vn -0.016766 0.999040 0.040476
vn -0.016766 0.999040 0.040476
vn -0.016766 0.999040 0.040476
vn 0.040476 0.999040 -0.016766
vn 0.040476 0.999040 -0.016766
vn 0.040476 0.999040 -0.016766
vn 0.040476 0.999040 -0.016766
vn 0.016766 0.999040 -0.040476
vn 0.016766 0.999040 -0.040476
vn 0.016766 0.999040 -0.040476
vn 0.016766 0.999040 -0.040476
vn -0.016766 0.999040 -0.040476
vn -0.016766 0.999040 -0.040476
vn -0.016766 0.999040 -0.040476
vn -0.016766 0.999040 -0.040476
vn -0.040476 0.999040 -0.016766
vn -0.040476 0.999040 -0.016766
vn -0.040476 0.999040 -0.016766
vn -0.040476 0.999040 -0.016766
vn -0.040476 0.999040 0.016766
vn -0.040476 0.999040 0.016766
vn -0.040476 0.999040 0.016766
vn -0.040476 0.999040 0.016766
vn 0.382684 0.000000 -0.923880
vn 0.382684 0.000000 -0.923880
vn 0.382684 0.000000 -0.923880
vn 0.382684 0.000000 -0.923880
vn -0.382683 0.000000 0.923880
vn -0.382683 0.000000 0.923880
vn -0.382683 0.000000 0.923880
vn -0.382683 0.000000 0.923880
vn -0.923879 0.000000 0.382684
vn -0.923879 0.000000 0.382684
vn -0.923879 0.000000 0.382684
vn -0.923879 0.000000 0.382684
vn 0.923879 0.000000 -0.382684
vn 0.923879 0.000000 -0.382684
vn 0.923879 0.000000 -0.382684
vn 0.923879 0.000000 -0.382684
vn -0.382684 0.000000 0.923879
vn -0.382684 0.000000 0.923879
vn -0.382684 0.000000 0.923879
vn -0.382684 0.000000 0.923879
vn 0.382684 0.000000 -0.923880
vn 0.382684 0.000000 -0.923880
vn 0.382684 0.000000 -0.923880
vn 0.382684 0.000000 -0.923880
vn 0.382683 0.000000 0.923880
vn 0.382683 0.000000 0.923880
vn 0.382683 0.000000 0.923880
vn 0.382683 0.000000 0.923880
vn -0.382683 0.000000 -0.923880
vn -0.382683 0.000000 -0.923880
vn -0.382683 0.000000 -0.923880
vn -0.382683 0.000000 -0.923880
vn 0.923880 0.000000 0.382683
vn 0.923880 0.000000 0.382683
vn 0.923880 0.000000 0.382683
vn 0.923880 0.000000 0.382683
vn -0.923880 0.000000 -0.382683
vn -0.923880 0.000000 -0.382683
vn -0.923880 0.000000 -0.382683
vn -0.923880 0.000000 -0.382683
vn 0.923880 0.000000 -0.382683
vn 0.923880 0.000000 -0.382683
vn 0.923880 0.000000 -0.382683
vn 0.923880 0.000000 -0.382683
vn -0.923880 0.000000 0.382683
vn -0.923880 0.000000 0.382683
vn -0.923880 0.000000 0.382683
vn -0.923880 0.000000 0.382683
vn -0.382683 0.000000 0.923880
vn -0.382683 0.000000 0.923880
vn -0.382683 0.000000 0.923880
vn -0.382683 0.000000 0.923880
vn 0.923880 0.000000 -0.382684
vn 0.923880 0.000000 -0.382684
vn 0.923880 0.000000 -0.382684
vn 0.923880 0.000000 -0.382684
vn 0.382684 0.000000 -0.923880
vn 0.382684 0.000000 -0.923880
vn 0.382684 0.000000 -0.923880
vn 0.382684 0.000000 -0.923880
vn -0.382683 0.000000 -0.923880
vn -0.382683 0.000000 -0.923880
vn -0.382683 0.000000 -0.923880
vn -0.382683 0.000000 -0.923880
vn -0.923880 0.000000 -0.382683
vn -0.923880 0.000000 -0.382683
vn -0.923880 0.000000 -0.382683
vn -0.923880 0.000000 -0.382683
vn -0.923880 0.000000 0.382683
vn -0.923880 0.000000 0.382683
vn -0.923880 0.000000 0.382683
vn -0.923880 0.000000 0.382683
vn 0.268574 -0.956814 -0.111247
vn 0.268574 -0.956814 -0.111247
vn 0.268574 -0.956814 -0.111247
vn 0.268574 -0.956814 -0.111247
vn 0.111247 -0.956814 -0.268574
vn 0.111247 -0.956814 -0.268574
vn 0.111247 -0.956814 -0.268574
vn 0.111247 -0.956814 -0.268574
vn -0.111247 -0.956814 -0.268573
vn -0.111247 -0.956814 -0.268573
vn -0.111247 -0.956814 -0.268573
vn -0.111247 -0.956814 -0.268573
vn -0.268573 -0.956814 -0.111247
vn -0.268573 -0.956814 -0.111247
vn -0.268573 -0.956814 -0.111247
vn -0.268573 -0.956814 -0.111247
vn -0.268573 -0.956814 0.111247
vn -0.268573 -0.956814 0.111247
vn -0.268573 -0.956814 0.111247
vn -0.268573 -0.956814 0.111247
vn -0.111247 -0.956814 0.268573
vn -0.111247 -0.956814 0.268573
vn -0.111247 -0.956814 0.268573
vn -0.111247 -0.956814 0.268573
vn 0.000000 0.000000 -1.000000
vn 0.000000 0.000000 -1.000000
vn 0.000000 0.000000 -1.000000
vn 0.000000 0.000000 -1.000000
vn 0.000000 0.000000 -1.000000
vn 0.000000 0.000000 -1.000000
vn -1.000000 0.000000 0.000000
vn -1.000000 0.000000 0.000000
vn -1.000000 0.000000 0.000000
vn -1.000000 0.000000 0.000000
vn -1.000000 0.000000 0.000000
vn -1.000000 0.000000 0.000000
s off
g polySurface102 pCylinder25
usemtl initialShadingGroup
f 1/1/1 2/2/2 9/3/3 8/4/4
f 3/5/5 4/7/6 11/8/7 10/6/8
f 4/7/9 5/9/10 12/10/11 11/8/12
f 5/9/13 6/11/14 13/12/15 12/10/16
f 6/11/17 7/13/18 14/14/19 13/12/20
f 7/13/21 1/1/22 8/15/23 14/14/24
f 22/16/25 23/17/26 24/18/27 25/19/28
f 26/20/29 28/22/30 29/23/31 27/21/32
f 28/22/33 30/24/34 31/25/35 29/23/36
f 30/24/37 32/26/38 33/27/39 31/25/40
f 32/26/41 34/28/42 35/29/43 33/27/44
f 34/28/45 22/16/46 25/19/47 35/29/48
f 8/30/49 9/31/50 23/17/51 22/16/52
f 16/32/53 15/33/54 25/19/55 24/18/56
f 10/34/57 11/36/58 28/22/59 26/20/60
f 18/37/61 17/35/62 27/21/63 29/23/64
f 11/36/65 12/38/66 30/24/67 28/22/68
f 19/39/69 18/37/70 29/23/71 31/25/72
f 12/38/73 13/40/74 32/26/75 30/24/76
f 20/41/77 19/39/78 31/25/79 33/27/80
f 13/40/81 14/42/82 34/28/83 32/26/84
f 21/43/85 20/41/86 33/27/87 35/29/88
f 14/42/89 8/30/90 22/16/91 34/28/92
f 15/33/93 21/43/94 35/29/95 25/19/96
f 15/44/97 16/45/98 37/46/99 36/47/100
f 17/49/101 18/50/102 39/51/103 38/48/104
f 18/52/105 19/53/106 40/54/107 39/51/108
f 19/55/109 20/56/110 41/57/111 40/54/112
f 20/58/113 21/59/114 42/60/115 41/57/116
f 21/61/117 15/62/118 36/47/119 42/60/120
f 4/7/121 3/5/122 38/48/123 39/51/124
f 5/9/125 4/7/126 39/51/127 40/54/128
f 6/11/129 5/9/130 40/54/131 41/57/132
f 7/13/133 6/11/134 41/57/135 42/60/136
f 1/1/137 7/13/138 42/60/139 36/47/140
f 2/2/141 1/1/142 36/47/143 37/46/144
f 26/20/145 27/21/146 17/49/147 38/48/148 3/5/149 10/34/150
f 23/17/151 9/3/152 2/2/153 37/46/154 16/32/155 24/18/156
