# This file uses centimeters as units for non-parametric coordinates.

mtllib colider assets.mtl
g default
v -79.649576 -3.485728 4.507009
v -105.720193 -3.485728 -6.291794
v -131.790807 -3.485728 4.507009
v -142.589614 -3.485728 30.577627
v -131.790807 -3.485728 56.648242
v -105.720193 -3.485728 67.447047
v -79.649572 -3.485728 56.648244
v -68.850769 -3.485728 30.577627
v -79.649576 -0.497831 4.507009
v -105.720193 -0.497831 -6.291794
v -131.790807 -0.497831 4.507009
v -142.589614 -0.497831 30.577627
v -131.790807 -0.497831 56.648242
v -105.720193 -0.497831 67.447047
v -79.649572 -0.497831 56.648244
v -68.850769 -0.497831 30.577627
v -105.720193 -3.485728 30.577627
v -105.720193 -3.432176 66.125425
v -80.584098 -3.432176 55.713718
v -105.720193 -3.432176 30.577627
v -70.172391 -3.432176 30.577627
v -80.584102 -3.432176 5.441533
v -80.584102 -0.551383 5.441533
v -105.720193 -0.551383 -4.970172
v -105.720193 -0.551383 30.577627
v -130.856285 -0.551383 5.441533
v -141.267992 -0.551383 30.577627
v -130.856285 -0.551383 55.713718
v -105.720193 -0.551383 66.125425
v -80.584098 -0.551383 55.713718
v -70.172391 -0.551383 30.577627
v -79.649576 6.349641 4.507009
v -105.720193 6.349641 -6.291794
v -105.720193 6.296089 -4.970172
v -80.584102 6.296089 5.441533
v -131.790807 6.349641 4.507009
v -130.856285 6.296089 5.441533
v -142.589614 6.349641 30.577627
v -141.267992 6.296089 30.577627
v -131.790807 6.349641 56.648242
v -130.856285 6.296089 55.713718
v -105.720193 6.349641 67.447047
v -105.720193 6.296089 66.125425
v -79.649572 6.349641 56.648244
v -80.584098 6.296089 55.713718
v -68.850769 6.349641 30.577627
v -70.172391 6.296089 30.577627
vt 0.610485 0.045765
vt 0.500000 0.000000
vt 0.389515 0.045765
vt 0.343750 0.156250
vt 0.389515 0.266735
vt 0.500000 0.312500
vt 0.610485 0.266735
vt 0.656250 0.156250
vt 0.375000 0.312500
vt 0.406250 0.312500
vt 0.437500 0.312500
vt 0.468750 0.312500
vt 0.500000 0.312500
vt 0.531250 0.312500
vt 0.562500 0.312500
vt 0.593750 0.312500
vt 0.625000 0.312500
vt 0.375000 0.688440
vt 0.406250 0.688440
vt 0.437500 0.688440
vt 0.468750 0.688440
vt 0.500000 0.688440
vt 0.531250 0.688440
vt 0.562500 0.688440
vt 0.593750 0.688440
vt 0.625000 0.688440
vt 0.610485 0.733265
vt 0.500000 0.687500
vt 0.389515 0.733265
vt 0.343750 0.843750
vt 0.389515 0.954235
vt 0.500000 1.000000
vt 0.610485 0.954235
vt 0.656250 0.843750
vt 0.500000 0.150000
vt 0.500000 0.837500
vt 0.610485 0.266735
vt 0.500000 0.312500
vt 0.500000 0.150000
vt 0.656250 0.156250
vt 0.610485 0.045765
vt 0.610485 0.954235
vt 0.500000 1.000000
vt 0.389515 0.954235
vt 0.343750 0.843750
vt 0.389515 0.733265
vt 0.500000 0.687500
vt 0.610485 0.733265
vt 0.656250 0.843750
vt 0.610485 0.954235
vt 0.500000 1.000000
vt 0.500000 1.000000
vt 0.610485 0.954235
vt 0.389515 0.954235
vt 0.389515 0.954235
vt 0.343750 0.843750
vt 0.343750 0.843750
vt 0.389515 0.733265
vt 0.389515 0.733265
vt 0.500000 0.687500
vt 0.500000 0.687500
vt 0.610485 0.733265
vt 0.610485 0.733265
vt 0.656250 0.843750
vt 0.656250 0.843750
vn 0.382683 0.000000 -0.923880
vn 0.382683 0.000000 -0.923880
vn 0.382683 0.000000 -0.923880
vn 0.382683 0.000000 -0.923880
vn -0.382683 0.000000 -0.923880
vn -0.382683 0.000000 -0.923880
vn -0.382683 0.000000 -0.923880
vn -0.382683 0.000000 -0.923880
vn -0.923880 0.000000 -0.382684
vn -0.923880 0.000000 -0.382684
vn -0.923880 0.000000 -0.382684
vn -0.923880 0.000000 -0.382684
vn -0.923880 0.000000 0.382684
vn -0.923880 0.000000 0.382684
vn -0.923880 0.000000 0.382684
vn -0.923880 0.000000 0.382684
vn -0.382683 0.000000 0.923880
vn -0.382683 0.000000 0.923880
vn -0.382683 0.000000 0.923880
vn -0.382683 0.000000 0.923880
vn 0.382683 0.000000 0.923880
vn 0.382683 0.000000 0.923880
vn 0.382683 0.000000 0.923880
vn 0.382683 0.000000 0.923880
vn 0.923880 0.000000 0.382683
vn 0.923880 0.000000 0.382683
vn 0.923880 0.000000 0.382683
vn 0.923880 0.000000 0.382683
vn 0.923880 0.000000 -0.382684
vn 0.923880 0.000000 -0.382684
vn 0.923880 0.000000 -0.382684
vn 0.923880 0.000000 -0.382684
vn 0.000000 -1.000000 0.000000
vn 0.000000 -1.000000 0.000000
vn 0.000000 -1.000000 0.000000
vn 0.000000 -1.000000 -0.000000
vn 0.000000 -1.000000 0.000000
vn 0.000000 -1.000000 0.000000
vn 0.000000 -1.000000 0.000000
vn 0.000000 -1.000000 0.000000
vn 0.000000 -1.000000 0.000000
vn 0.000000 -1.000000 0.000000
vn 0.000000 -1.000000 0.000000
vn 0.000000 -1.000000 0.000000
vn 0.000000 1.000000 0.000000
vn 0.000000 1.000000 0.000000
vn 0.000000 1.000000 0.000000
vn 0.000000 1.000000 0.000000
vn 0.000000 1.000000 0.000000
vn 0.000000 1.000000 0.000000
vn 0.000000 1.000000 0.000000
vn 0.000000 1.000000 0.000000
vn 0.000000 1.000000 0.000000
vn -0.016768 -0.999040 -0.040481
vn -0.016768 -0.999040 -0.040481
vn -0.016768 -0.999040 -0.040481
vn -0.016768 -0.999040 -0.040481
vn 1.000000 -0.000001 0.000000
vn 1.000000 -0.000001 0.000000
vn 1.000000 -0.000001 0.000000
vn 1.000000 -0.000001 0.000000
vn -0.040481 -0.999040 -0.016768
vn -0.040481 -0.999040 -0.016768
vn -0.040481 -0.999040 -0.016768
vn -0.040481 -0.999040 -0.016768
vn -0.040481 -0.999040 0.016768
vn -0.040481 -0.999040 0.016768
vn -0.040481 -0.999040 0.016768
vn -0.040481 -0.999040 0.016768
vn 0.707107 0.000017 0.707106
vn 0.707107 0.000017 0.707106
vn 0.707107 0.000017 0.707106
vn 0.707107 0.000017 0.707106
vn -0.016768 0.999040 0.040481
vn -0.016768 0.999040 0.040481
vn -0.016768 0.999040 0.040481
vn -0.016768 0.999040 0.040481
vn 0.016768 0.999040 0.040481
vn 0.016768 0.999040 0.040481
vn 0.016768 0.999040 0.040481
vn 0.016768 0.999040 0.040481
vn 0.040481 0.999040 0.016768
vn 0.040481 0.999040 0.016768
vn 0.040481 0.999040 0.016768
vn 0.040481 0.999040 0.016768
vn 0.040481 0.999040 -0.016768
vn 0.040481 0.999040 -0.016768
vn 0.040481 0.999040 -0.016768
vn 0.040481 0.999040 -0.016768
vn 0.016768 0.999040 -0.040481
vn 0.016768 0.999040 -0.040481
vn 0.016768 0.999040 -0.040481
vn 0.016768 0.999040 -0.040481
vn -0.016768 0.999040 -0.040481
vn -0.016768 0.999040 -0.040481
vn -0.016768 0.999040 -0.040481
vn -0.016768 0.999040 -0.040481
vn -0.040481 0.999040 -0.016768
vn -0.040481 0.999040 -0.016768
vn -0.040481 0.999040 -0.016768
vn -0.040481 0.999040 -0.016768
vn -0.040481 0.999040 0.016768
vn -0.040481 0.999040 0.016768
vn -0.040481 0.999040 0.016768
vn -0.040481 0.999040 0.016768
vn 0.382683 0.000000 -0.923880
vn 0.382683 0.000000 -0.923880
vn 0.382683 0.000000 -0.923880
vn 0.382683 0.000000 -0.923880
vn -0.382683 0.000000 0.923880
vn -0.382683 0.000000 0.923880
vn -0.382683 0.000000 0.923880
vn -0.382683 0.000000 0.923880
vn -0.382683 0.000000 -0.923880
vn -0.382683 0.000000 -0.923880
vn -0.382683 0.000000 -0.923880
vn -0.382683 0.000000 -0.923880
vn 0.382683 0.000000 0.923880
vn 0.382683 0.000000 0.923880
vn 0.382683 0.000000 0.923880
vn 0.382683 0.000000 0.923880
vn -0.923880 0.000000 -0.382684
vn -0.923880 0.000000 -0.382684
vn -0.923880 0.000000 -0.382684
vn -0.923880 0.000000 -0.382684
vn 0.923880 0.000000 0.382683
vn 0.923880 0.000000 0.382683
vn 0.923880 0.000000 0.382683
vn 0.923880 0.000000 0.382683
vn -0.923880 0.000000 0.382684
vn -0.923880 0.000000 0.382684
vn -0.923880 0.000000 0.382684
vn -0.923880 0.000000 0.382684
vn 0.923880 0.000000 -0.382683
vn 0.923880 0.000000 -0.382683
vn 0.923880 0.000000 -0.382683
vn 0.923880 0.000000 -0.382683
vn -0.382683 0.000000 0.923880
vn -0.382683 0.000000 0.923880
vn -0.382683 0.000000 0.923880
vn -0.382683 0.000000 0.923880
vn 0.382683 0.000000 -0.923880
vn 0.382683 0.000000 -0.923880
vn 0.382683 0.000000 -0.923880
vn 0.382683 0.000000 -0.923880
vn 0.382683 0.000000 0.923880
vn 0.382683 0.000000 0.923880
vn 0.382683 0.000000 0.923880
vn 0.382683 0.000000 0.923880
vn -0.382683 0.000000 -0.923880
vn -0.382683 0.000000 -0.923880
vn -0.382683 0.000000 -0.923880
vn -0.382683 0.000000 -0.923880
vn 0.923880 0.000000 0.382683
vn 0.923880 0.000000 0.382683
vn 0.923880 0.000000 0.382683
vn 0.923880 0.000000 0.382683
vn -0.923880 0.000000 -0.382683
vn -0.923880 0.000000 -0.382683
vn -0.923880 0.000000 -0.382683
vn -0.923880 0.000000 -0.382683
vn 0.923880 0.000000 -0.382684
vn 0.923880 0.000000 -0.382684
vn 0.923880 0.000000 -0.382684
vn 0.923880 0.000000 -0.382684
vn -0.923880 0.000000 0.382683
vn -0.923880 0.000000 0.382683
vn -0.923880 0.000000 0.382683
vn -0.923880 0.000000 0.382683
s off
g pCylinder25
usemtl initialShadingGroup
f 1/9/1 2/10/2 10/19/3 9/18/4
f 2/10/5 3/11/6 11/20/7 10/19/8
f 3/11/9 4/12/10 12/21/11 11/20/12
f 4/12/13 5/13/14 13/22/15 12/21/16
f 5/13/17 6/14/18 14/23/19 13/22/20
f 6/14/21 7/15/22 15/24/23 14/23/24
f 7/15/25 8/16/26 16/25/27 15/24/28
f 8/16/29 1/17/30 9/26/31 16/25/32
s 1
f 2/2/33 1/1/34 17/35/35
f 3/3/36 2/2/33 17/35/35
f 4/4/37 3/3/36 17/35/35
f 5/5/38 4/4/37 17/35/35
f 6/6/39 5/5/38 17/35/35
s 2
f 19/37/40 18/38/41 20/39/42
f 21/40/43 19/37/40 20/39/42
f 22/41/44 21/40/43 20/39/42
s 3
f 23/42/45 24/43/46 25/36/47
f 24/43/46 26/44/48 25/36/47
f 26/44/48 27/45/49 25/36/47
f 27/45/49 28/46/50 25/36/47
f 28/46/50 29/47/51 25/36/47
f 29/47/51 30/48/52 25/36/47
f 30/48/52 31/49/53 25/36/47
f 31/49/53 23/42/45 25/36/47
s off
f 7/7/54 6/6/55 18/38/56 19/37/57
f 6/6/58 17/35/59 20/39/60 18/38/61
f 8/8/62 7/7/63 19/37/64 21/40/65
f 1/1/66 8/8/67 21/40/68 22/41/69
f 17/35/70 1/1/71 22/41/72 20/39/73
f 32/50/74 33/51/75 34/52/76 35/53/77
f 33/51/78 36/54/79 37/55/80 34/52/81
f 36/54/82 38/56/83 39/57/84 37/55/85
f 38/56/86 40/58/87 41/59/88 39/57/89
f 40/58/90 42/60/91 43/61/92 41/59/93
f 42/60/94 44/62/95 45/63/96 43/61/97
f 44/62/98 46/64/99 47/65/100 45/63/101
f 46/64/102 32/50/103 35/53/104 47/65/105
f 9/33/106 10/32/107 33/51/108 32/50/109
f 24/43/110 23/42/111 35/53/112 34/52/113
f 10/32/114 11/31/115 36/54/116 33/51/117
f 26/44/118 24/43/119 34/52/120 37/55/121
f 11/31/122 12/30/123 38/56/124 36/54/125
f 27/45/126 26/44/127 37/55/128 39/57/129
f 12/30/130 13/29/131 40/58/132 38/56/133
f 28/46/134 27/45/135 39/57/136 41/59/137
f 13/29/138 14/28/139 42/60/140 40/58/141
f 29/47/142 28/46/143 41/59/144 43/61/145
f 14/28/146 15/27/147 44/62/148 42/60/149
f 30/48/150 29/47/151 43/61/152 45/63/153
f 15/27/154 16/34/155 46/64/156 44/62/157
f 31/49/158 30/48/159 45/63/160 47/65/161
f 16/34/162 9/33/163 32/50/164 46/64/165
f 23/42/166 31/49/167 47/65/168 35/53/169
g default
v -110.613134 -15.343228 -86.881914
v -110.613134 -7.958338 -86.881917
v -95.723472 -7.958338 -50.935152
v -95.723488 -15.343228 -50.935152
v -115.888446 -18.405109 -81.606625
v -114.560738 -17.852823 -82.934313
v -101.306223 -17.852823 -50.935152
v -103.183863 -18.405109 -50.935153
v -105.012279 -17.391416 -50.935155
v -103.159248 -16.777172 -50.935155
v -115.871040 -16.777172 -81.624024
v -117.181330 -17.391416 -80.313734
v -112.008052 -16.230014 -85.486996
v -97.696195 -16.230014 -50.935152
v -99.910525 -14.692427 -50.935152
v -98.514843 -14.012911 -50.935152
v -112.586929 -14.012911 -84.908112
v -113.573827 -14.692427 -83.921221
v -106.865317 -17.422907 -50.935152
v -105.012279 -16.808661 -50.935152
v -117.181330 -16.808661 -80.313734
v -118.491645 -17.422907 -79.003445
v -103.159248 -16.326536 -50.935155
v -101.306203 -15.712296 -50.935155
v -114.560738 -15.712296 -82.934313
v -115.871040 -16.326536 -81.624024
v -101.306203 -16.162930 -50.935152
v -99.910525 -15.483412 -50.935152
v -113.573827 -15.483412 -83.921221
v -114.560738 -16.162930 -82.934313
v -119.801967 -18.619907 -77.693154
v -108.718348 -18.619907 -50.935155
v -106.865317 -18.005661 -50.935152
v -118.491645 -18.005661 -79.003445
v -111.600133 -8.637931 -85.894914
v -112.586929 -10.774790 -84.908112
v -98.514843 -10.774789 -50.935155
v -97.119295 -8.637929 -50.935155
v -108.718351 -20.033011 -50.935155
v -119.801967 -20.033011 -77.693154
v -118.347988 -19.428202 -79.147112
v -106.662141 -19.428202 -50.935154
v -117.095937 -18.907387 -80.399147
v -104.891488 -18.907387 -50.935153
v -113.326889 -17.068436 -84.168158
v -99.561310 -17.068436 -50.935152
v -113.011630 -16.868014 -84.483421
v -99.115459 -16.868014 -50.935152
vt 0.593750 0.623607
vt 0.625000 0.623607
vt 0.625000 0.688440
vt 0.593750 0.688440
vt 0.593750 0.623607
vt 0.625000 0.623607
vt 0.625000 0.623607
vt 0.593750 0.623607
vt 0.625000 0.688440
vt 0.593750 0.688440
vt 0.593750 0.688440
vt 0.625000 0.688440
vt 0.593750 0.623607
vt 0.625000 0.623607
vt 0.625000 0.688440
vt 0.593750 0.688440
vt 0.593750 0.688440
vt 0.625000 0.688440
vt 0.625000 0.688440
vt 0.593750 0.688440
vt 0.593750 0.688440
vt 0.625000 0.688440
vt 0.625000 0.688440
vt 0.593750 0.688440
vt 0.593750 0.688440
vt 0.625000 0.688440
vt 0.625000 0.688440
vt 0.593750 0.688440
vt 0.593750 0.688440
vt 0.625000 0.688440
vt 0.625000 0.688440
vt 0.593750 0.688440
vt 0.593750 0.688440
vt 0.625000 0.688440
vt 0.625000 0.688440
vt 0.625000 0.688440
vt 0.593750 0.688440
vt 0.593750 0.688440
vt 0.593750 0.623607
vt 0.625000 0.623607
vt 0.625000 0.623607
vt 0.593750 0.623607
vt 0.625000 0.623607
vt 0.593750 0.623607
vt 0.625000 0.623607
vt 0.593750 0.623607
vt 0.593750 0.623607
vt 0.625000 0.623607
vn 0.923879 -0.000001 -0.382684
vn 0.923879 -0.000001 -0.382684
vn 0.923879 -0.000001 -0.382684
vn 0.923879 -0.000001 -0.382684
vn 0.280275 -0.952874 -0.116094
vn 0.280275 -0.952874 -0.116094
vn 0.280275 -0.952874 -0.116094
vn 0.280275 -0.952874 -0.116094
vn -0.312005 0.941249 0.129237
vn -0.312005 0.941249 0.129237
vn -0.312005 0.941249 0.129237
vn -0.312005 0.941249 0.129237
vn 0.404218 -0.899207 -0.167433
vn 0.404218 -0.899207 -0.167433
vn 0.404218 -0.899207 -0.167433
vn 0.404218 -0.899207 -0.167433
vn -0.430723 0.884674 0.178412
vn -0.430723 0.884673 0.178412
vn -0.430723 0.884674 0.178412
vn -0.430723 0.884673 0.178412
vn -0.312005 0.941250 0.129237
vn -0.312005 0.941250 0.129237
vn -0.312005 0.941250 0.129237
vn -0.312005 0.941250 0.129237
vn -0.312002 0.941251 0.129236
vn -0.312002 0.941251 0.129236
vn -0.312002 0.941251 0.129236
vn -0.312002 0.941251 0.129236
vn -0.430720 0.884675 0.178411
vn -0.430720 0.884675 0.178411
vn -0.430720 0.884675 0.178411
vn -0.430720 0.884675 0.178411
vn -0.312004 0.941250 0.129237
vn -0.312004 0.941250 0.129237
vn -0.312004 0.941250 0.129237
vn -0.312004 0.941250 0.129237
vn -0.923879 0.000000 0.382684
vn -0.923879 0.000000 0.382684
vn -0.923879 0.000000 0.382684
vn -0.923879 0.000000 0.382684
vn -0.923879 0.000000 0.382685
vn -0.923879 0.000000 0.382685
vn -0.923879 0.000000 0.382685
vn -0.923879 0.000000 0.382685
vn 0.923879 -0.000000 -0.382684
vn 0.923879 -0.000000 -0.382684
vn 0.923879 -0.000000 -0.382684
vn 0.923879 -0.000000 -0.382685
vn -0.923879 0.000000 0.382685
vn -0.923879 0.000000 0.382685
vn -0.923879 0.000000 0.382685
vn -0.923879 0.000000 0.382685
vn 0.923879 -0.000000 -0.382685
vn 0.923879 -0.000000 -0.382685
vn 0.923879 -0.000000 -0.382685
vn 0.923879 -0.000000 -0.382685
vn -0.791041 0.516616 0.327661
vn -0.791041 0.516616 0.327661
vn -0.791041 0.516616 0.327661
vn -0.791041 0.516616 0.327661
vn -0.430724 0.884673 0.178412
vn -0.430724 0.884673 0.178412
vn -0.430724 0.884673 0.178412
vn -0.430724 0.884673 0.178412
vn -0.923879 0.000000 0.382684
vn -0.923879 0.000000 0.382684
vn -0.923879 0.000000 0.382684
vn -0.923879 0.000000 0.382684
vn 0.280274 -0.952874 -0.116094
vn 0.280274 -0.952874 -0.116094
vn 0.280275 -0.952874 -0.116094
vn 0.280275 -0.952874 -0.116094
vn 0.280275 -0.952873 -0.116094
vn 0.280275 -0.952873 -0.116094
vn 0.404218 -0.899207 -0.167433
vn 0.404218 -0.899207 -0.167433
vn 0.404218 -0.899207 -0.167433
vn 0.404218 -0.899207 -0.167433
vn 0.404218 -0.899207 -0.167433
vn 0.404218 -0.899207 -0.167433
vn -0.923880 0.000003 0.382683
vn -0.923880 0.000003 0.382683
vn -0.923880 0.000003 0.382683
vn -0.923880 0.000003 0.382683
vn -0.923880 0.000003 0.382683
vn -0.923880 0.000003 0.382683
vn -0.923880 0.000003 0.382683
vn -0.923880 0.000003 0.382683
vn -0.923880 0.000003 0.382683
vn -0.923880 0.000003 0.382683
vn -0.923880 0.000003 0.382683
vn -0.923880 0.000003 0.382683
vn -0.923880 0.000003 0.382683
vn -0.923880 0.000003 0.382683
vn -0.923880 0.000003 0.382683
vn -0.923880 0.000003 0.382683
vn -0.923880 0.000003 0.382683
vn -0.923880 0.000003 0.382683
vn -0.923880 0.000003 0.382683
vn -0.923880 0.000003 0.382683
vn -0.923880 0.000003 0.382683
vn -0.923880 0.000003 0.382683
vn -0.923880 0.000003 0.382683
vn -0.923880 0.000003 0.382683
vn -0.923880 0.000003 0.382683
vn -0.923880 0.000003 0.382683
vn -0.923880 0.000003 0.382683
vn -0.923880 0.000003 0.382683
vn -0.923880 0.000003 0.382683
vn -0.923880 0.000003 0.382683
vn -0.923880 0.000003 0.382683
vn -0.923880 0.000003 0.382683
vn -0.923880 0.000003 0.382683
vn -0.923880 0.000003 0.382683
vn -0.923880 0.000003 0.382683
vn -0.923880 0.000003 0.382683
vn -0.923880 0.000003 0.382683
vn -0.923880 0.000003 0.382683
vn -0.923880 0.000003 0.382683
vn -0.923880 0.000003 0.382683
vn -0.923880 0.000003 0.382683
vn -0.923880 0.000003 0.382683
vn -0.923880 0.000003 0.382683
vn -0.923880 0.000003 0.382683
vn -0.923880 0.000003 0.382683
vn -0.923880 0.000003 0.382683
vn -0.923880 0.000003 0.382683
vn -0.923880 0.000003 0.382683
s off
g polySurface101 polySurface1 pCylinder1
usemtl initialShadingGroup
f 51/66/170 48/67/171 49/68/172 50/69/173
s 1
f 55/70/174 52/71/175 53/72/176 54/73/177
s off
f 59/74/178 56/75/179 57/76/180 58/77/181
s 2
f 61/78/182 60/79/183 48/67/184 51/66/185
s off
f 65/80/186 62/81/187 63/82/188 64/83/189
f 69/84/190 66/85/191 67/86/192 68/87/193
f 73/88/194 70/89/195 71/90/196 72/91/197
f 77/92/198 74/93/199 75/94/200 76/95/201
f 78/96/202 79/97/203 80/98/204 81/99/205
f 76/95/206 75/94/207 62/81/208 65/80/209
f 58/77/210 57/76/211 70/89/212 73/88/213
f 74/93/214 77/92/215 72/91/216 71/90/217
f 81/99/218 80/98/219 66/85/220 69/84/221
f 56/75/222 59/74/223 68/87/224 67/86/225
f 82/100/226 83/101/227 84/102/228 85/103/229
f 82/100/230 85/103/231 50/69/232 49/68/233
f 84/102/234 83/101/235 64/83/236 63/82/237
s 1
f 86/104/238 87/105/239 88/106/240 89/107/241
f 89/107/241 88/106/240 90/108/242 91/109/243
f 91/109/243 90/108/242 52/71/175 55/70/174
s 2
f 54/73/244 53/72/245 92/110/246 93/111/247
f 95/112/248 94/113/249 60/79/183 61/78/182
f 93/111/247 92/110/246 94/113/249 95/112/248
s off
f 50/69/250 85/103/251 84/102/252 63/82/253 62/81/254 75/94/255 74/93/256 71/90/257 70/89/258 57/76/259 56/75/260 67/86/261 66/85/262 80/98/263 79/97/264 78/96/265 81/99/266 69/84/267 68/87/268 59/74/269 58/77/270 73/88/271 72/91/272 77/92/273 76/95/274 65/80/275 64/83/276 83/101/277 82/100/278 49/68/279 48/67/280 60/79/281 94/113/282 92/110/283 53/72/284 52/71/285 90/108/286 88/106/287 87/105/288 86/104/289 89/107/290 91/109/291 55/70/292 54/73/293 93/111/294 95/112/295 61/78/296 51/66/297
